<mxfile host="app.diagrams.net" modified="2023-11-14T02:48:57.159Z" agent="Mozilla/5.0 (Macintosh; Intel Mac OS X 10_15_7) AppleWebKit/537.36 (KHTML, like Gecko) Chrome/119.0.0.0 Safari/537.36" version="22.1.0" etag="92w8iHi_m6fEctKl1tt2" type="github">
  <diagram name="第 1 页" id="sXRuMf7iwfb_wcj4tbuB">
    <mxGraphModel>
      <root>
        <mxCell id="0" />
        <mxCell id="1" parent="0" />
      </root>
    </mxGraphModel>
  </diagram>
</mxfile>
